# xmcd
#
# Track frame offsets: 
#        150
#        14561
#        38151
#        51719
#        70165
#        85592
#        102176
#        120828
#        140324
#        158244
#        174970
#        189862
#        204724
#        219691
#        234700
#        250631
#        268117
#        285030
#        300676
#        316922
#        334750
#
# Disc length: 4637 seconds
#
# Revision: 0
# Processed by: cddbd v1.5.2PL0 Copyright (c) Steve Scherf et al.
# Submitted via: ExactAudioCopy v0.95b4
#
DISCID=20121b15
DTITLE=Various Artist - 100 Пудовый Хит
DYEAR=2007
DGENRE=Pop
TTITLE0=МакSим/Ветром Стать
TTITLE1=Гости Из Будущего/Самый Любимый Враг
TTITLE2=Uma2rmaH/В Городе Лето
TTITLE3=Пропоганда/Непростой (long version)
TTITLE4=Павел Воля/Шоубиззз
TTITLE5=Киркоров Филипп/Сердце В 1000 Свечей
TTITLE6=Валерия/Мы Вместе
TTITLE7=Бордо!/Цветные Сны
TTITLE8=Колдун Дмитрий/Дай Мне Силу (Zoloto Remix)
TTITLE9=Согдиана/Синее Небо
TTITLE10=Дайнеко Виктория/Фильм Не О Любви
TTITLE11=Гурцкая Диана/Это Всё Любовь
TTITLE12=Винтаж/Целься
TTITLE13=Фабрика/Зажигают Огоньки
TTITLE14=Город 312/Девочка, Которая Хотела Счастья
TTITLE15=Алексин Андрей/Лейла (& Стоматолог и Фисун)
TTITLE16=Ассорти/Зажги Моё Тело
TTITLE17=ЛКН/Она
TTITLE18=Tokio/Когда Ты Плачешь (Remix Dj Грув)
TTITLE19=Агурбаш Анжелика/Я Буду Жить Для Тебя
TTITLE20=Панайотов Александр/Не Моя (& Чумаков Алексей)
EXTD=
EXTT0=
EXTT1=
EXTT2=
EXTT3=
EXTT4=
EXTT5=
EXTT6=
EXTT7=
EXTT8=
EXTT9=
EXTT10=
EXTT11=
EXTT12=
EXTT13=
EXTT14=
EXTT15=
EXTT16=
EXTT17=
EXTT18=
EXTT19=
EXTT20=
PLAYORDER=
